<svg xmlns="http://www.w3.org/2000/svg" viewBox="0 0 238 223"><defs><style>.cls-1,.cls-3{fill:none;}.cls-1,.cls-2{stroke:#000;stroke-miterlimit:10;}.cls-2{fill:#c4ddda;}</style></defs><g id="Livello_2" data-name="Livello 2"><g id="Livello_1-2" data-name="Livello 1"><circle id="_1" data-name="1" class="cls-1" cx="119" cy="111.5" r="102.5"/><polygon class="cls-2" points="192.35 164.29 192.35 171.34 45.65 171.34 45.65 164.29 50.94 164.29 50.94 157.24 187.06 157.24 187.06 164.29 192.35 164.29"/><rect class="cls-2" x="45.65" y="64.14" width="146.69" height="7.05"/><polygon class="cls-2" points="192.06 59.91 45.95 59.91 119 23.66 192.06 59.91"/><polygon class="cls-2" points="98.77 81.87 98.77 148.29 102.06 148.29 102.06 153.36 80.11 153.36 80.11 148.29 83.77 148.29 83.77 81.87 80.11 81.87 80.11 76.8 102.06 76.8 102.06 81.87 98.77 81.87"/><polygon class="cls-2" points="126.69 81.87 126.69 148.29 129.98 148.29 129.98 153.36 108.02 153.36 108.02 148.29 111.68 148.29 111.68 81.87 108.02 81.87 108.02 76.8 129.98 76.8 129.98 81.87 126.69 81.87"/><polygon class="cls-2" points="154.61 81.87 154.61 148.29 157.9 148.29 157.9 153.36 135.94 153.36 135.94 148.29 139.6 148.29 139.6 81.87 135.94 81.87 135.94 76.8 157.9 76.8 157.9 81.87 154.61 81.87"/><polygon class="cls-2" points="182.52 81.87 182.52 148.29 185.81 148.29 185.81 153.36 163.86 153.36 163.86 148.29 167.52 148.29 167.52 81.87 163.86 81.87 163.86 76.8 185.81 76.8 185.81 81.87 182.52 81.87"/><polygon class="cls-2" points="70.86 81.87 70.86 148.29 74.14 148.29 74.14 153.36 52.19 153.36 52.19 148.29 55.85 148.29 55.85 81.87 52.19 81.87 52.19 76.8 74.14 76.8 74.14 81.87 70.86 81.87"/><rect class="cls-3" width="238" height="223"/></g></g></svg>